<svg width="21" height="22" viewBox="0 0 21 22" fill="none" xmlns="http://www.w3.org/2000/svg">
<path d="M16.75 10.75V7.4741C16.75 7.00623 16.586 6.55316 16.2864 6.19373L12.3497 1.46963C11.9697 1.01365 11.4068 0.75 10.8133 0.75H8.75H4.75C2.54086 0.75 0.75 2.54086 0.75 4.75V8.75M9.75 20.75H4.75C2.54086 20.75 0.75 18.9591 0.75 16.75V13.75" stroke="#FF0000" stroke-width="1.5" stroke-linecap="round"/>
<path d="M13.75 17.75H19.75" stroke="#FF0000" stroke-width="1.5" stroke-linecap="round" stroke-linejoin="round"/>
<path d="M16.75 14.75L16.75 20.75" stroke="#FF0000" stroke-width="1.5" stroke-linecap="round" stroke-linejoin="round"/>
<path d="M11.75 1.25V4.75C11.75 5.30345 11.9748 5.80439 12.3381 6.1665C12.6998 6.52708 13.1989 6.75 13.75 6.75" stroke="#FF0000" stroke-width="1.5" stroke-linecap="round"/>
</svg>
