<svg width="24" height="24" viewBox="0 0 24 24" fill="none" xmlns="http://www.w3.org/2000/svg">
<path d="M19.5 5.50049L18.8803 15.5256C18.7219 18.0869 18.6428 19.3676 18.0008 20.2884C17.6833 20.7436 17.2747 21.1278 16.8007 21.4165C15.8421 22.0005 14.559 22.0005 11.9927 22.0005C9.42312 22.0005 8.1383 22.0005 7.17905 21.4154C6.7048 21.1262 6.296 20.7413 5.97868 20.2853C5.33688 19.3631 5.25945 18.0806 5.10461 15.5157L4.5 5.50049" stroke="#FF0000" stroke-width="1.4" stroke-linecap="round"/>
<path d="M3 5.49951H21M16.0557 5.49951L15.3731 4.09124C14.9196 3.15577 14.6928 2.68803 14.3017 2.39632C14.215 2.33161 14.1231 2.27405 14.027 2.22421C13.5939 1.99951 13.0741 1.99951 12.0345 1.99951C10.9688 1.99951 10.436 1.99951 9.99568 2.23363C9.8981 2.28552 9.80498 2.34541 9.71729 2.41268C9.32164 2.71621 9.10063 3.20106 8.65861 4.17077L8.05292 5.49951" stroke="#FF0000" stroke-width="1.4" stroke-linecap="round"/>
</svg>
