<svg width="360" height="360" viewBox="0 0 360 360" fill="none" xmlns="http://www.w3.org/2000/svg">
<rect width="360" height="360" fill="white"/>
<mask id="path-1-outside-1_142_300" maskUnits="userSpaceOnUse" x="26" y="36" width="234" height="241" fill="black">
<rect fill="white" x="26" y="36" width="234" height="241"/>
<path d="M42.3078 265.836C41.8391 261.148 41.3703 253.648 40.9016 243.336C40.6672 232.789 40.3156 220.836 39.8469 207.477C39.6125 193.883 39.3781 179.469 39.1438 164.234C38.9094 149 38.4406 134.352 37.7375 120.289C37.2688 105.992 36.4484 92.75 35.2766 80.5625C34.3391 68.375 33.1672 58.6484 31.7609 51.3828C31.7609 45.5234 33.5188 42.2422 37.0344 41.5391C40.7844 40.6016 45.0031 40.6016 49.6906 41.5391C51.8 59.1172 53.2063 75.0547 53.9094 89.3516C54.8469 103.648 55.4328 116.422 55.6672 127.672C56.1359 138.688 56.4875 148.297 56.7219 156.5C57.1906 164.469 58.0109 170.914 59.1828 175.836C61.9953 154.039 64.925 135.523 67.9719 120.289C71.0188 105.055 74.1828 92.6328 77.4641 83.0234C80.9797 73.1797 84.7297 66.0312 88.7141 61.5781C92.6984 56.8906 97.0344 54.1953 101.722 53.4922C105.941 53.0234 109.925 56.4219 113.675 63.6875C117.425 70.7188 120.823 79.7422 123.87 90.7578C127.152 101.773 129.964 113.727 132.308 126.617C134.886 139.273 136.878 150.992 138.284 161.773C146.253 138.102 152.816 119.352 157.972 105.523C163.363 91.6953 168.05 81.2656 172.034 74.2344C176.019 66.9688 179.652 62.3984 182.933 60.5234C186.448 58.6484 190.316 57.8281 194.534 58.0625C200.159 58.2969 204.613 60.7578 207.894 65.4453C211.409 69.8984 214.105 75.9922 215.98 83.7266C217.855 91.2266 219.144 100.016 219.847 110.094C220.784 119.938 221.488 130.367 221.956 141.383C222.659 152.398 223.48 163.648 224.417 175.133C225.589 186.383 227.23 197.164 229.339 207.477C231.448 217.789 234.378 227.398 238.128 236.305C241.878 244.977 246.917 252.125 253.245 257.75C251.136 261.969 248.675 265.602 245.863 268.648C243.05 271.461 240.12 271.93 237.073 270.055C230.277 265.602 224.769 258.102 220.55 247.555C216.566 236.773 213.284 224.586 210.706 210.992C208.128 197.398 206.253 183.336 205.081 168.805C203.909 154.039 202.855 140.562 201.917 128.375C200.98 116.188 199.925 106.109 198.753 98.1406C197.816 90.1719 196.409 86.0703 194.534 85.8359C187.738 84.8984 180.706 95.5625 173.441 117.828C166.409 140.094 157.152 173.141 145.667 216.969C144.495 220.016 143.089 222.242 141.448 223.648C139.808 224.82 138.167 225.406 136.527 225.406C134.886 225.406 133.245 224.938 131.605 224C129.964 222.828 128.558 221.422 127.386 219.781C124.105 201.969 121.292 184.859 118.948 168.453C116.839 152.047 114.847 137.516 112.972 124.859C111.097 112.203 109.105 102.008 106.995 94.2734C105.12 86.5391 103.011 82.4375 100.667 81.9688C98.5578 81.5 96.4484 83.8438 94.3391 89C92.4641 93.9219 90.5891 100.836 88.7141 109.742C86.8391 118.414 84.8469 128.844 82.7375 141.031C80.8625 152.984 78.8703 165.875 76.7609 179.703C74.6516 193.531 72.425 207.828 70.0813 222.594C67.7375 237.125 65.1594 251.539 62.3469 265.836C61.4094 267.711 60.0031 269.117 58.1281 270.055C56.2531 271.227 54.2609 271.812 52.1516 271.812C50.2766 271.812 48.4016 271.344 46.5266 270.406C44.6516 269.469 43.2453 267.945 42.3078 265.836Z"/>
</mask>
<path d="M42.3078 265.836C41.8391 261.148 41.3703 253.648 40.9016 243.336C40.6672 232.789 40.3156 220.836 39.8469 207.477C39.6125 193.883 39.3781 179.469 39.1438 164.234C38.9094 149 38.4406 134.352 37.7375 120.289C37.2688 105.992 36.4484 92.75 35.2766 80.5625C34.3391 68.375 33.1672 58.6484 31.7609 51.3828C31.7609 45.5234 33.5188 42.2422 37.0344 41.5391C40.7844 40.6016 45.0031 40.6016 49.6906 41.5391C51.8 59.1172 53.2063 75.0547 53.9094 89.3516C54.8469 103.648 55.4328 116.422 55.6672 127.672C56.1359 138.688 56.4875 148.297 56.7219 156.5C57.1906 164.469 58.0109 170.914 59.1828 175.836C61.9953 154.039 64.925 135.523 67.9719 120.289C71.0188 105.055 74.1828 92.6328 77.4641 83.0234C80.9797 73.1797 84.7297 66.0312 88.7141 61.5781C92.6984 56.8906 97.0344 54.1953 101.722 53.4922C105.941 53.0234 109.925 56.4219 113.675 63.6875C117.425 70.7188 120.823 79.7422 123.87 90.7578C127.152 101.773 129.964 113.727 132.308 126.617C134.886 139.273 136.878 150.992 138.284 161.773C146.253 138.102 152.816 119.352 157.972 105.523C163.363 91.6953 168.05 81.2656 172.034 74.2344C176.019 66.9688 179.652 62.3984 182.933 60.5234C186.448 58.6484 190.316 57.8281 194.534 58.0625C200.159 58.2969 204.613 60.7578 207.894 65.4453C211.409 69.8984 214.105 75.9922 215.98 83.7266C217.855 91.2266 219.144 100.016 219.847 110.094C220.784 119.938 221.488 130.367 221.956 141.383C222.659 152.398 223.48 163.648 224.417 175.133C225.589 186.383 227.23 197.164 229.339 207.477C231.448 217.789 234.378 227.398 238.128 236.305C241.878 244.977 246.917 252.125 253.245 257.75C251.136 261.969 248.675 265.602 245.863 268.648C243.05 271.461 240.12 271.93 237.073 270.055C230.277 265.602 224.769 258.102 220.55 247.555C216.566 236.773 213.284 224.586 210.706 210.992C208.128 197.398 206.253 183.336 205.081 168.805C203.909 154.039 202.855 140.562 201.917 128.375C200.98 116.188 199.925 106.109 198.753 98.1406C197.816 90.1719 196.409 86.0703 194.534 85.8359C187.738 84.8984 180.706 95.5625 173.441 117.828C166.409 140.094 157.152 173.141 145.667 216.969C144.495 220.016 143.089 222.242 141.448 223.648C139.808 224.82 138.167 225.406 136.527 225.406C134.886 225.406 133.245 224.938 131.605 224C129.964 222.828 128.558 221.422 127.386 219.781C124.105 201.969 121.292 184.859 118.948 168.453C116.839 152.047 114.847 137.516 112.972 124.859C111.097 112.203 109.105 102.008 106.995 94.2734C105.12 86.5391 103.011 82.4375 100.667 81.9688C98.5578 81.5 96.4484 83.8438 94.3391 89C92.4641 93.9219 90.5891 100.836 88.7141 109.742C86.8391 118.414 84.8469 128.844 82.7375 141.031C80.8625 152.984 78.8703 165.875 76.7609 179.703C74.6516 193.531 72.425 207.828 70.0813 222.594C67.7375 237.125 65.1594 251.539 62.3469 265.836C61.4094 267.711 60.0031 269.117 58.1281 270.055C56.2531 271.227 54.2609 271.812 52.1516 271.812C50.2766 271.812 48.4016 271.344 46.5266 270.406C44.6516 269.469 43.2453 267.945 42.3078 265.836Z" fill="black"/>
<path d="M42.3078 265.836L37.5316 266.314L37.6084 267.081L37.9215 267.785L42.3078 265.836ZM40.9016 243.336L36.1027 243.443L36.104 243.498L36.1065 243.554L40.9016 243.336ZM39.8469 207.477L35.0476 207.559L35.0483 207.602L35.0498 207.645L39.8469 207.477ZM37.7375 120.289L32.9401 120.446L32.9414 120.488L32.9435 120.529L37.7375 120.289ZM35.2766 80.5625L30.4907 80.9306L30.4942 80.9763L30.4986 81.0219L35.2766 80.5625ZM31.7609 51.3828H26.9609V51.8431L27.0484 52.2949L31.7609 51.3828ZM37.0344 41.5391L37.9757 46.2458L38.0877 46.2234L38.1985 46.1957L37.0344 41.5391ZM49.6906 41.5391L54.4564 40.9672L54.0421 37.5143L50.632 36.8323L49.6906 41.5391ZM53.9094 89.3516L49.1152 89.5873L49.1171 89.6265L49.1197 89.6656L53.9094 89.3516ZM55.6672 127.672L50.8682 127.772L50.8693 127.824L50.8715 127.876L55.6672 127.672ZM56.7219 156.5L51.9238 156.637L51.9259 156.71L51.9302 156.782L56.7219 156.5ZM59.1828 175.836L54.5133 176.948L63.9433 176.45L59.1828 175.836ZM77.4641 83.0234L72.9437 81.409L72.9324 81.4406L72.9216 81.4723L77.4641 83.0234ZM88.7141 61.5781L92.2912 64.7787L92.3319 64.7333L92.3714 64.6868L88.7141 61.5781ZM101.722 53.4922L101.192 48.7215L101.101 48.7317L101.01 48.7453L101.722 53.4922ZM113.675 63.6875L109.41 65.889L109.424 65.9178L109.44 65.9463L113.675 63.6875ZM123.87 90.7578L119.244 92.0374L119.257 92.0829L119.27 92.1281L123.87 90.7578ZM132.308 126.617L127.585 127.476L127.594 127.526L127.604 127.575L132.308 126.617ZM138.284 161.773L133.525 162.394L142.834 163.305L138.284 161.773ZM157.972 105.523L153.5 103.78L153.487 103.813L153.474 103.846L157.972 105.523ZM172.034 74.2344L176.21 76.6008L176.227 76.5717L176.243 76.5424L172.034 74.2344ZM182.933 60.5234L180.674 56.2881L180.612 56.3211L180.551 56.3559L182.933 60.5234ZM194.534 58.0625L194.268 62.8551L194.301 62.857L194.335 62.8583L194.534 58.0625ZM207.894 65.4453L203.961 68.1979L204.041 68.3111L204.126 68.4196L207.894 65.4453ZM215.98 83.7266L211.315 84.8574L211.319 84.8741L211.323 84.8907L215.98 83.7266ZM219.847 110.094L215.059 110.428L215.063 110.488L215.068 110.549L219.847 110.094ZM221.956 141.383L217.161 141.587L217.163 141.638L217.166 141.689L221.956 141.383ZM224.417 175.133L219.633 175.523L219.637 175.577L219.643 175.63L224.417 175.133ZM238.128 236.305L233.704 238.167L233.713 238.189L233.722 238.21L238.128 236.305ZM253.245 257.75L257.539 259.897L259.184 256.606L256.434 254.162L253.245 257.75ZM245.863 268.648L249.257 272.043L249.324 271.975L249.39 271.904L245.863 268.648ZM237.073 270.055L234.443 274.07L234.5 274.107L234.558 274.143L237.073 270.055ZM220.55 247.555L216.048 249.219L216.07 249.278L216.093 249.337L220.55 247.555ZM205.081 168.805L200.296 169.184L200.297 169.191L205.081 168.805ZM198.753 98.1406L193.986 98.7015L193.994 98.7704L194.004 98.839L198.753 98.1406ZM194.534 85.8359L193.879 90.5909L193.909 90.5951L193.939 90.5989L194.534 85.8359ZM173.441 117.828L168.877 116.339L168.87 116.361L168.863 116.383L173.441 117.828ZM145.667 216.969L150.147 218.692L150.243 218.443L150.31 218.185L145.667 216.969ZM141.448 223.648L144.238 227.554L144.411 227.431L144.572 227.293L141.448 223.648ZM131.605 224L128.815 227.906L129.012 228.047L129.223 228.168L131.605 224ZM127.386 219.781L122.665 220.651L122.859 221.702L123.48 222.571L127.386 219.781ZM118.948 168.453L114.188 169.065L114.192 169.099L114.197 169.132L118.948 168.453ZM106.995 94.2734L102.33 95.4043L102.347 95.4706L102.364 95.5364L106.995 94.2734ZM100.667 81.9688L99.6259 86.6544L99.6758 86.6655L99.7258 86.6755L100.667 81.9688ZM94.3391 89L89.8964 87.1826L89.8743 87.2366L89.8535 87.2912L94.3391 89ZM88.7141 109.742L93.4057 110.757L93.4084 110.744L93.4111 110.731L88.7141 109.742ZM82.7375 141.031L78.0078 140.213L78.0014 140.25L77.9955 140.287L82.7375 141.031ZM70.0813 222.594L74.82 223.358L74.8219 223.346L70.0813 222.594ZM62.3469 265.836L66.6401 267.983L66.931 267.401L67.0566 266.762L62.3469 265.836ZM58.1281 270.055L55.9815 265.761L55.7775 265.863L55.5841 265.984L58.1281 270.055ZM42.3078 265.836L47.084 265.358C46.6291 260.81 46.1649 253.421 45.6966 243.118L40.9016 243.336L36.1065 243.554C36.5757 253.876 37.049 261.487 37.5316 266.314L42.3078 265.836ZM40.9016 243.336L45.7004 243.229C45.4654 232.657 45.1132 220.683 44.6439 207.308L39.8469 207.477L35.0498 207.645C35.518 220.989 35.8689 232.921 36.1027 243.443L40.9016 243.336ZM39.8469 207.477L44.6462 207.394C44.4118 193.803 44.1775 179.392 43.9432 164.161L39.1438 164.234L34.3443 164.308C34.5787 179.545 34.8132 193.962 35.0476 207.559L39.8469 207.477ZM39.1438 164.234L43.9432 164.161C43.708 148.875 43.2376 134.171 42.5315 120.049L37.7375 120.289L32.9435 120.529C33.6436 134.532 34.1107 149.125 34.3443 164.308L39.1438 164.234ZM37.7375 120.289L42.5349 120.132C42.0634 105.75 41.2375 92.4061 40.0545 80.1031L35.2766 80.5625L30.4986 81.0219C31.6594 93.0939 32.4741 106.234 32.9401 120.446L37.7375 120.289ZM35.2766 80.5625L40.0624 80.1944C39.1187 67.9253 37.9296 57.9938 36.4735 50.4707L31.7609 51.3828L27.0484 52.2949C28.4048 59.3031 29.5595 68.8247 30.4907 80.9306L35.2766 80.5625ZM31.7609 51.3828H36.5609C36.5609 48.8341 36.9597 47.4486 37.3104 46.794C37.4638 46.5077 37.5814 46.4094 37.6208 46.3796C37.6558 46.3532 37.7441 46.2922 37.9757 46.2458L37.0344 41.5391L36.093 36.8323C32.8683 37.4772 30.3743 39.4119 28.8482 42.2607C27.4411 44.8873 26.9609 48.0721 26.9609 51.3828H31.7609ZM37.0344 41.5391L38.1985 46.1957C41.1157 45.4665 44.5975 45.4155 48.7493 46.2458L49.6906 41.5391L50.632 36.8323C45.4087 35.7876 40.4531 35.7367 35.8702 36.8824L37.0344 41.5391ZM49.6906 41.5391L44.9248 42.111C47.0238 59.6023 48.4187 75.4254 49.1152 89.5873L53.9094 89.3516L58.7036 89.1158C57.9938 74.684 56.5762 58.632 54.4564 40.9672L49.6906 41.5391ZM53.9094 89.3516L49.1197 89.6656C50.0537 103.909 50.6357 116.609 50.8682 127.772L55.6672 127.672L60.4661 127.572C60.2299 116.234 59.6401 103.387 58.6991 89.0375L53.9094 89.3516ZM55.6672 127.672L50.8715 127.876C51.3396 138.876 51.6903 148.462 51.9238 156.637L56.7219 156.5L61.5199 156.363C61.2847 148.131 60.9323 138.499 60.4629 127.468L55.6672 127.672ZM56.7219 156.5L51.9302 156.782C52.4071 164.89 53.2506 171.644 54.5133 176.948L59.1828 175.836L63.8523 174.724C62.7713 170.184 61.9741 164.047 61.5136 156.218L56.7219 156.5ZM59.1828 175.836L63.9433 176.45C66.747 154.722 69.6603 136.322 72.6787 121.23L67.9719 120.289L63.2651 119.348C60.1897 134.725 57.2436 153.356 54.4223 175.222L59.1828 175.836ZM67.9719 120.289L72.6787 121.23C75.7034 106.107 78.819 93.9094 82.0065 84.5745L77.4641 83.0234L72.9216 81.4723C69.5466 91.3562 66.3341 104.003 63.2651 119.348L67.9719 120.289ZM77.4641 83.0234L81.9844 84.6379C85.4241 75.0069 88.9211 68.5453 92.2912 64.7787L88.7141 61.5781L85.1369 58.3775C80.5382 63.5172 76.5353 71.3525 72.9437 81.409L77.4641 83.0234ZM88.7141 61.5781L92.3714 64.6868C95.8331 60.6142 99.2008 58.724 102.434 58.2391L101.722 53.4922L101.01 48.7453C94.8679 49.6666 89.5638 53.167 85.0568 58.4694L88.7141 61.5781ZM101.722 53.4922L102.252 58.2628C102.747 58.2078 103.523 58.287 104.759 59.3415C106.087 60.4742 107.678 62.533 109.41 65.889L113.675 63.6875L117.94 61.486C115.922 57.5763 113.645 54.3031 110.989 52.0374C108.241 49.6935 104.916 48.3078 101.192 48.7215L101.722 53.4922ZM113.675 63.6875L109.44 65.9463C112.969 72.5645 116.254 81.2283 119.244 92.0374L123.87 90.7578L128.497 89.4782C125.393 78.256 121.881 68.873 117.91 61.4287L113.675 63.6875ZM123.87 90.7578L119.27 92.1281C122.495 102.954 125.269 114.734 127.585 127.476L132.308 126.617L137.03 125.759C134.66 112.719 131.808 100.593 128.471 89.3875L123.87 90.7578ZM132.308 126.617L127.604 127.575C130.164 140.14 132.136 151.745 133.525 162.394L138.284 161.773L143.044 161.153C141.621 150.24 139.608 138.407 137.011 125.659L132.308 126.617ZM138.284 161.773L142.834 163.305C150.795 139.653 157.339 120.959 162.469 107.2L157.972 105.523L153.474 103.846C148.292 117.744 141.711 136.55 133.735 160.242L138.284 161.773ZM157.972 105.523L162.444 107.267C167.808 93.5075 172.397 83.3307 176.21 76.6008L172.034 74.2344L167.858 71.8679C163.703 79.2006 158.917 89.8831 153.5 103.78L157.972 105.523ZM172.034 74.2344L176.243 76.5424C180.199 69.3282 183.295 65.8452 185.314 64.691L182.933 60.5234L180.551 56.3559C176.009 58.9517 171.838 64.6093 167.826 71.9264L172.034 74.2344ZM182.933 60.5234L185.192 64.7587C187.885 63.3223 190.871 62.6664 194.268 62.8551L194.534 58.0625L194.801 53.2699C189.76 52.9899 185.012 53.9746 180.674 56.2881L182.933 60.5234ZM194.534 58.0625L194.335 62.8583C198.437 63.0293 201.522 64.7124 203.961 68.1979L207.894 65.4453L211.826 62.6927C207.703 56.8033 201.882 53.5645 194.734 53.2667L194.534 58.0625ZM207.894 65.4453L204.126 68.4196C207.077 72.1576 209.541 77.5424 211.315 84.8574L215.98 83.7266L220.645 82.5957C218.668 74.442 215.741 67.6393 211.661 62.471L207.894 65.4453ZM215.98 83.7266L211.323 84.8907C213.113 92.0504 214.369 100.55 215.059 110.428L219.847 110.094L224.635 109.76C223.918 99.4814 222.596 90.4027 220.636 82.5624L215.98 83.7266ZM219.847 110.094L215.068 110.549C215.997 120.3 216.695 130.646 217.161 141.587L221.956 141.383L226.752 141.179C226.28 130.089 225.572 119.575 224.625 109.639L219.847 110.094ZM221.956 141.383L217.166 141.689C217.871 152.734 218.693 164.012 219.633 175.523L224.417 175.133L229.201 174.742C228.266 163.285 227.448 152.063 226.747 141.077L221.956 141.383ZM224.417 175.133L219.643 175.63C220.83 187.025 222.493 197.962 224.636 208.438L229.339 207.477L234.042 206.515C231.966 196.367 230.348 185.741 229.191 174.635L224.417 175.133ZM229.339 207.477L224.636 208.438C226.803 219.033 229.822 228.946 233.704 238.167L238.128 236.305L242.552 234.442C238.935 225.851 236.093 216.546 234.042 206.515L229.339 207.477ZM238.128 236.305L233.722 238.21C237.718 247.45 243.147 255.196 250.056 261.338L253.245 257.75L256.434 254.162C250.687 249.054 246.038 242.504 242.534 234.4L238.128 236.305ZM253.245 257.75L248.952 255.603C247.017 259.473 244.803 262.72 242.335 265.393L245.863 268.648L249.39 271.904C252.547 268.484 255.254 264.465 257.539 259.897L253.245 257.75ZM245.863 268.648L242.468 265.254C241.537 266.186 240.974 266.341 240.798 266.37C240.689 266.387 240.345 266.432 239.589 265.967L237.073 270.055L234.558 274.143C236.849 275.553 239.493 276.3 242.314 275.849C245.068 275.409 247.376 273.923 249.257 272.043L245.863 268.648ZM237.073 270.055L239.704 266.04C233.999 262.302 229.001 255.757 225.007 245.772L220.55 247.555L216.093 249.337C220.537 260.446 226.554 268.901 234.443 274.07L237.073 270.055ZM220.55 247.555L225.052 245.891C221.177 235.404 217.96 223.48 215.422 210.098L210.706 210.992L205.99 211.887C208.608 225.691 211.954 238.143 216.048 249.219L220.55 247.555ZM210.706 210.992L215.422 210.098C212.878 196.681 211.025 182.789 209.866 168.419L205.081 168.805L200.297 169.191C201.482 183.883 203.379 198.116 205.99 211.887L210.706 210.992ZM205.081 168.805L209.866 168.425C208.695 153.662 207.64 140.19 206.703 128.007L201.917 128.375L197.131 128.743C198.069 140.935 199.124 154.416 200.296 169.184L205.081 168.805ZM201.917 128.375L206.703 128.007C205.761 115.759 204.696 105.561 203.502 97.4423L198.753 98.1406L194.004 98.839C195.154 106.658 196.198 116.616 197.131 128.743L201.917 128.375ZM198.753 98.1406L203.52 97.5798C203.039 93.4907 202.406 90.0702 201.536 87.5311C201.105 86.2748 200.525 84.9561 199.68 83.8403C198.835 82.7227 197.359 81.3516 195.13 81.073L194.534 85.8359L193.939 90.5989C192.648 90.4375 192.051 89.667 192.025 89.6333C192.001 89.6015 192.182 89.8502 192.455 90.6446C192.99 92.2072 193.53 94.8218 193.986 98.7015L198.753 98.1406ZM194.534 85.8359L195.19 81.081C188.771 80.1956 183.797 84.9667 180.156 90.4887C176.284 96.3604 172.552 105.077 168.877 116.339L173.441 117.828L178.004 119.317C181.595 108.313 185.011 100.565 188.171 95.7731C191.561 90.6309 193.501 90.5388 193.879 90.5909L194.534 85.8359ZM173.441 117.828L168.863 116.383C161.795 138.765 152.514 171.904 141.024 215.752L145.667 216.969L150.31 218.185C161.79 174.377 171.023 141.423 178.018 119.274L173.441 117.828ZM145.667 216.969L141.187 215.246C140.167 217.898 139.13 219.314 138.325 220.004L141.448 223.648L144.572 227.293C147.048 225.17 148.824 222.133 150.147 218.692L145.667 216.969ZM141.448 223.648L138.659 219.743C137.643 220.468 136.957 220.606 136.527 220.606V225.406V230.206C139.377 230.206 141.973 229.173 144.238 227.554L141.448 223.648ZM136.527 225.406V220.606C135.841 220.606 135.013 220.419 133.986 219.832L131.605 224L129.223 228.168C131.478 229.456 133.931 230.206 136.527 230.206V225.406ZM131.605 224L134.395 220.094C133.185 219.23 132.156 218.201 131.292 216.991L127.386 219.781L123.48 222.571C124.96 224.643 126.743 226.426 128.815 227.906L131.605 224ZM127.386 219.781L132.107 218.912C128.836 201.157 126.034 184.111 123.7 167.774L118.948 168.453L114.197 169.132C116.55 185.608 119.374 202.781 122.665 220.651L127.386 219.781ZM118.948 168.453L123.709 167.841C121.597 151.413 119.601 136.85 117.72 124.156L112.972 124.859L108.224 125.563C110.093 138.181 112.081 152.681 114.188 169.065L118.948 168.453ZM112.972 124.859L117.72 124.156C115.831 111.408 113.806 101.004 111.626 93.0105L106.995 94.2734L102.364 95.5364C104.403 103.012 106.362 112.998 108.224 125.563L112.972 124.859ZM106.995 94.2734L111.66 93.1426C110.688 89.1311 109.585 85.7474 108.276 83.2012C107.121 80.9563 105.101 77.9605 101.609 77.262L100.667 81.9688L99.7258 86.6755C98.5767 86.4457 98.7836 85.7351 99.7384 87.5918C100.538 89.1472 101.428 91.6814 102.33 95.4043L106.995 94.2734ZM100.667 81.9688L101.708 77.2831C98.253 76.5152 95.5609 78.3578 93.9353 80.164C92.3307 81.9469 91.0255 84.4227 89.8964 87.1826L94.3391 89L98.7817 90.8174C99.762 88.4211 100.566 87.1469 101.071 86.586C101.303 86.3286 101.305 86.4107 101.035 86.5308C100.691 86.6836 100.172 86.7758 99.6259 86.6544L100.667 81.9688ZM94.3391 89L89.8535 87.2912C87.8479 92.5559 85.9123 99.7509 84.017 108.753L88.7141 109.742L93.4111 110.731C95.2659 101.921 97.0802 95.2878 98.8246 90.7088L94.3391 89ZM88.7141 109.742L84.0225 108.728C82.1292 117.484 80.1245 127.983 78.0078 140.213L82.7375 141.031L87.4672 141.85C89.5693 129.705 91.549 119.344 93.4057 110.757L88.7141 109.742ZM82.7375 141.031L77.9955 140.287C76.1193 152.248 74.1261 165.145 72.0158 178.979L76.7609 179.703L81.5061 180.427C83.6146 166.605 85.6057 153.721 87.4795 141.775L82.7375 141.031ZM76.7609 179.703L72.0158 178.979C69.908 192.797 67.6829 207.085 65.3406 221.841L70.0813 222.594L74.8219 223.346C77.1671 208.572 79.3951 194.265 81.5061 180.427L76.7609 179.703ZM70.0813 222.594L65.3425 221.829C63.0074 236.307 60.4389 250.667 57.6371 264.909L62.3469 265.836L67.0566 266.762C69.8798 252.411 72.4676 237.943 74.82 223.358L70.0813 222.594ZM62.3469 265.836L58.0536 263.689C57.5806 264.635 56.9276 265.288 55.9815 265.761L58.1281 270.055L60.2748 274.348C63.0787 272.946 65.2382 270.786 66.6401 267.983L62.3469 265.836ZM58.1281 270.055L55.5841 265.984C54.4334 266.703 53.3169 267.013 52.1516 267.013V271.812V276.612C55.205 276.612 58.0728 275.75 60.6721 274.125L58.1281 270.055ZM52.1516 271.812V267.013C51.1058 267.013 49.9612 266.757 48.6732 266.113L46.5266 270.406L44.3799 274.699C46.8419 275.93 49.4473 276.612 52.1516 276.612V271.812ZM46.5266 270.406L48.6732 266.113C47.8964 265.725 47.2283 265.088 46.6941 263.886L42.3078 265.836L37.9215 267.785C39.2624 270.802 41.4067 273.213 44.3799 274.699L46.5266 270.406Z" fill="black" mask="url(#path-1-outside-1_142_300)"/>
<rect x="144.2" y="129.8" width="189.6" height="189.6" fill="#FF0000" fill-opacity="0.1" stroke="#FF0000" stroke-width="4.8" stroke-dasharray="24 24"/>
<mask id="mask0_142_300" style="mask-type:alpha" maskUnits="userSpaceOnUse" x="26" y="36" width="234" height="241">
<path d="M36.4712 39.207C40.3722 38.235 44.6417 38.1964 49.2368 39.0107L50.1616 39.1855L51.8667 39.5264L52.0737 41.2529C54.1883 58.8743 55.6007 74.8691 56.3071 89.2334C57.2446 103.537 57.8307 116.33 58.0659 127.611C58.5337 138.608 58.8861 148.209 59.1206 156.411C59.1496 156.901 59.1808 157.385 59.2124 157.863C61.2852 143.497 63.4194 130.814 65.6187 119.818C68.6766 104.529 71.8648 91.9946 75.1929 82.248L75.1987 82.2324L75.2046 82.2158C78.7581 72.266 82.6339 64.7739 86.9253 59.9775C91.1613 55.0099 95.968 51.9289 101.366 51.1191L101.412 51.1123L101.458 51.1064C104.374 50.7825 107.062 51.8418 109.432 53.8633C111.75 55.8406 113.85 58.8003 115.792 62.5576C119.652 69.7933 123.106 78.9938 126.181 90.1084C129.483 101.2 132.31 113.217 134.664 126.156C136.475 135.049 137.998 143.488 139.235 151.472C145.772 132.23 151.268 116.632 155.723 104.685L155.73 104.668L155.736 104.651C161.14 90.789 165.877 80.2327 169.947 73.0508C173.94 65.7752 177.836 60.6718 181.743 58.4395L181.773 58.4219L181.803 58.4062C185.73 56.312 190.038 55.4089 194.667 55.666H194.667C201.008 55.939 206.115 58.7637 209.807 63.9961C213.587 68.7994 216.387 75.2289 218.308 83.1445L218.661 84.5977C220.383 91.9209 221.57 100.349 222.237 109.866L222.579 113.603C223.35 122.368 223.941 131.577 224.352 141.229L224.621 145.366C225.26 155.033 225.988 164.879 226.806 174.904C227.97 186.075 229.6 196.772 231.691 206.996C233.77 217.16 236.652 226.61 240.332 235.353L240.675 236.134C244.263 244.167 248.992 250.757 254.84 255.956L256.214 257.178L255.392 258.823C253.195 263.217 250.611 267.043 247.626 270.276L247.594 270.312L247.56 270.346C245.917 271.989 244.044 273.142 241.935 273.479C239.792 273.822 237.723 273.272 235.816 272.099L235.787 272.081L235.758 272.062C228.416 267.252 222.653 259.274 218.322 248.446L218.31 248.416L218.299 248.387C214.261 237.458 210.946 225.139 208.348 211.439C205.753 197.757 203.867 183.61 202.689 168.998V168.994C201.517 154.227 200.463 140.748 199.525 128.559C198.59 116.402 197.54 106.384 196.379 98.4902L196.374 98.4551L196.37 98.4209C195.907 94.489 195.345 91.6728 194.725 89.8662C194.414 88.9591 194.134 88.4434 193.941 88.1875C192.069 88.0777 189.462 89.4561 186.167 94.4521C182.832 99.5109 179.338 107.493 175.729 118.55L175.73 118.551C168.717 140.758 159.471 173.759 147.989 217.577L147.956 217.706L147.908 217.83C146.66 221.074 145.069 223.706 143.01 225.471L142.93 225.54L142.843 225.602C140.89 226.996 138.772 227.807 136.527 227.807C134.409 227.807 132.362 227.197 130.415 226.084L130.309 226.023L130.21 225.953C128.354 224.627 126.759 223.032 125.433 221.176L125.123 220.741L125.026 220.216C121.739 202.375 118.921 185.234 116.573 168.793L116.571 168.775L116.568 168.759C114.46 152.364 112.47 137.848 110.598 125.211C108.73 112.601 106.754 102.51 104.68 94.9053L104.671 94.8721L104.664 94.8389C103.744 91.0438 102.8 88.2972 101.873 86.4941C101.41 85.5954 100.997 85.0199 100.663 84.6768C100.377 84.3832 100.218 84.3284 100.197 84.3223L100.171 84.3174L100.147 84.3115C100.144 84.3108 100.142 84.3108 100.14 84.3105C100.138 84.3109 100.132 84.312 100.124 84.3145C100.111 84.3179 100.09 84.3246 100.06 84.3379C99.9315 84.3951 99.6669 84.5591 99.2876 84.9805C98.5102 85.8443 97.5838 87.4122 96.5698 89.8867C94.7641 94.6355 92.9236 101.398 91.063 110.236L91.0601 110.249C89.1942 118.879 87.2087 129.274 85.103 141.44C83.2303 153.379 81.2401 166.255 79.1333 180.065C77.0232 193.898 74.7961 208.2 72.4517 222.97L72.4507 222.976C70.1026 237.534 67.5195 251.975 64.7017 266.299L64.6392 266.618L64.4937 266.909C63.3424 269.212 61.5963 270.973 59.311 272.144C57.0984 273.506 54.6992 274.213 52.1519 274.213C49.8622 274.213 47.6221 273.637 45.4536 272.553C43.0295 271.341 41.2539 269.374 40.1147 266.811L39.9585 266.458L39.9204 266.075C39.4447 261.318 38.9734 253.763 38.5044 243.445L38.5034 243.417L38.5024 243.39C38.2683 232.855 37.9172 220.912 37.4487 207.561L37.4478 207.539V207.518C37.2134 193.922 36.979 179.507 36.7446 164.271C36.5106 149.063 36.042 134.442 35.3403 120.409L35.3394 120.389V120.368C34.872 106.114 34.0545 92.9218 32.8882 80.792L32.8853 80.7695L32.8843 80.7461C31.9499 68.5996 30.7861 58.9757 29.4048 51.8389L29.3608 51.6133V51.3828C29.3608 48.2626 29.8213 45.5272 30.9644 43.3936C32.1518 41.1772 34.0258 39.7229 36.4712 39.207Z" fill="#FF0000" stroke="black" stroke-width="4.8"/>
</mask>
<g mask="url(#mask0_142_300)">
<rect x="144.2" y="129.8" width="189.6" height="189.6" fill="#FF0000" stroke="#FF0000" stroke-width="4.8" stroke-dasharray="12 12"/>
</g>
</svg>
