<svg width="22" height="21" viewBox="0 0 22 21" fill="none" xmlns="http://www.w3.org/2000/svg">
<path d="M2.375 19.4502L2.84352 20.0358L2.84354 20.0358L2.375 19.4502ZM5.20216 17.1883L5.6707 17.7739L5.20216 17.1883ZM15.75 0.75V1.5C18.0972 1.5 20 3.40279 20 5.75H20.75H21.5C21.5 2.57436 18.9256 0 15.75 0V0.75ZM20.75 5.75H20V11.75H20.75H21.5V5.75H20.75ZM20.75 11.75H20C20 14.0972 18.0972 16 15.75 16V16.75V17.5C18.9256 17.5 21.5 14.9256 21.5 11.75H20.75ZM15.75 16.75V16H6.4516V16.75V17.5H15.75V16.75ZM5.20216 17.1883L4.73361 16.6027L1.90646 18.8646L2.375 19.4502L2.84354 20.0358L5.6707 17.7739L5.20216 17.1883ZM2.375 19.4502L1.90648 18.8645C1.74305 18.9953 1.5 18.8789 1.5 18.6689H0.75H0C0 20.136 1.69742 20.9527 2.84352 20.0358L2.375 19.4502ZM0.75 18.6689H1.5V5.75H0.75H0V18.6689H0.75ZM0.75 5.75H1.5C1.5 3.40279 3.40279 1.5 5.75 1.5V0.75V0C2.57436 0 0 2.57436 0 5.75H0.75ZM5.75 0.75V1.5H15.75V0.75V0H5.75V0.75ZM6.4516 16.75V16C5.82712 16 5.22124 16.2125 4.73361 16.6027L5.20216 17.1883L5.6707 17.7739C5.89235 17.5966 6.16775 17.5 6.4516 17.5V16.75Z" fill="#FF0000"/>
<circle cx="5.80005" cy="8.7998" r="1.25" fill="#FF0000"/>
<circle cx="10.8" cy="8.7998" r="1.25" fill="#FF0000"/>
<circle cx="15.8" cy="8.7998" r="1.25" fill="#FF0000"/>
</svg>
