<svg width="24" height="23" viewBox="0 0 24 23" fill="none" xmlns="http://www.w3.org/2000/svg">
<path d="M11.8246 21.7782H22.9491H11.8246Z" fill="black" fill-opacity="0.02"/>
<path d="M17.3868 1.4651C17.8786 0.97534 18.5455 0.700195 19.2409 0.700195C19.5853 0.700195 19.9262 0.767745 20.2444 0.898988C20.5625 1.03023 20.8515 1.2226 21.095 1.4651C21.3385 1.70761 21.5316 1.9955 21.6634 2.31235C21.7952 2.6292 21.863 2.9688 21.863 3.31175C21.863 3.6547 21.7952 3.9943 21.6634 4.31115C21.5316 4.628 21.3385 4.91589 21.095 5.1584L5.6443 20.5471L0.700073 21.7782L1.93613 16.8538L17.3868 1.4651Z" fill="black" fill-opacity="0.02"/>
<path d="M11.8246 21.7782H22.9491M17.3868 1.4651C17.8786 0.97534 18.5455 0.700195 19.2409 0.700195C19.5853 0.700195 19.9262 0.767745 20.2444 0.898988C20.5625 1.03023 20.8515 1.2226 21.095 1.4651C21.3385 1.70761 21.5316 1.9955 21.6634 2.31235C21.7952 2.6292 21.863 2.9688 21.863 3.31175C21.863 3.6547 21.7952 3.9943 21.6634 4.31115C21.5316 4.628 21.3385 4.91589 21.095 5.1584L5.6443 20.5471L0.700073 21.7782L1.93613 16.8538L17.3868 1.4651Z" stroke="#FF0000" stroke-width="1.4" stroke-linecap="round" stroke-linejoin="round"/>
</svg>
